# xmcd
#
# Track frame offsets:
#	150
#	25485
#	43955
#	63392
#	78817
#	101620
#	126980
#	149345
#	164667
#	180582
#	198215
#	218022
#
# Disc length: 3162 seconds
#
# Revision: 0
# Processed by: cddbd v1.5.1PL0 Copyright (c) Steve Scherf et al.
# Submitted via: dBpowerAMP V4.0
#
DISCID=ac0c580c
DTITLE=Angela Bofill - Platinum and Gold Collection
DYEAR=2003
DGENRE=R&B
TTITLE0=Too Tough
TTITLE1=Something About You
TTITLE2=This Time I'll Be Sweeter
TTITLE3=Let Me Be The One
TTITLE4=Angel Of The Night
TTITLE5=I Try
TTITLE6=Still In Love
TTITLE7=Holdin' Out For Love
TTITLE8=Tonight I Give In
TTITLE9=Break It To Me Gently
TTITLE10=I Wanna Love Somebody
TTITLE11=I Just Wanna Stop
EXTD=
EXTT0=
EXTT1=
EXTT2=
EXTT3=
EXTT4=
EXTT5=
EXTT6=
EXTT7=
EXTT8=
EXTT9=
EXTT10=
EXTT11=
PLAYORDER=
